<svg xmlns="http://www.w3.org/2000/svg" width="460" height="195" viewBox="0 0 460 195" role="img" aria-label="Top languages">
  <style>.t { font-family: 'Segoe UI', Ubuntu, sans-serif; }</style>
  <rect x="0.5" y="0.5" width="459" height="194" rx="14" fill="#0d1117" stroke="#1f2733"/>
  <rect x="0.5" y="0.5" width="459" height="4" rx="2" fill="#f5c518"/>
  <g class="t">
    <text x="30" y="42" fill="#00d9ff" font-size="19" font-weight="700">Mest brukte språk</text>
    <clipPath id="round"><rect x="30" y="70" width="400" height="12" rx="6"/></clipPath>
    <g clip-path="url(#round)"><rect x="30.00" y="70" width="165.54" height="12" fill="#3178c6"><title>TypeScript 41.4%</title></rect><rect x="195.54" y="70" width="62.17" height="12" fill="#4F5D95"><title>PHP 15.5%</title></rect><rect x="257.71" y="70" width="54.12" height="12" fill="#f1e05a"><title>JavaScript 13.5%</title></rect><rect x="311.83" y="70" width="50.39" height="12" fill="#f7523f"><title>Blade 12.6%</title></rect><rect x="362.22" y="70" width="38.65" height="12" fill="#663399"><title>CSS 9.7%</title></rect><rect x="400.87" y="70" width="22.86" height="12" fill="#e34c26"><title>HTML 5.7%</title></rect></g>
    
      <g transform="translate(30, 106)">
        <circle cx="5" cy="-4" r="5" fill="#3178c6"/>
        <text x="16" y="0" fill="#c9d1d9" font-size="12.5">TypeScript</text>
        <text x="176" y="0" fill="#8b949e" font-size="12.5" text-anchor="end">41.4%</text>
      </g>
      <g transform="translate(230, 106)">
        <circle cx="5" cy="-4" r="5" fill="#4F5D95"/>
        <text x="16" y="0" fill="#c9d1d9" font-size="12.5">PHP</text>
        <text x="176" y="0" fill="#8b949e" font-size="12.5" text-anchor="end">15.5%</text>
      </g>
      <g transform="translate(30, 130)">
        <circle cx="5" cy="-4" r="5" fill="#f1e05a"/>
        <text x="16" y="0" fill="#c9d1d9" font-size="12.5">JavaScript</text>
        <text x="176" y="0" fill="#8b949e" font-size="12.5" text-anchor="end">13.5%</text>
      </g>
      <g transform="translate(230, 130)">
        <circle cx="5" cy="-4" r="5" fill="#f7523f"/>
        <text x="16" y="0" fill="#c9d1d9" font-size="12.5">Blade</text>
        <text x="176" y="0" fill="#8b949e" font-size="12.5" text-anchor="end">12.6%</text>
      </g>
      <g transform="translate(30, 154)">
        <circle cx="5" cy="-4" r="5" fill="#663399"/>
        <text x="16" y="0" fill="#c9d1d9" font-size="12.5">CSS</text>
        <text x="176" y="0" fill="#8b949e" font-size="12.5" text-anchor="end">9.7%</text>
      </g>
      <g transform="translate(230, 154)">
        <circle cx="5" cy="-4" r="5" fill="#e34c26"/>
        <text x="16" y="0" fill="#c9d1d9" font-size="12.5">HTML</text>
        <text x="176" y="0" fill="#8b949e" font-size="12.5" text-anchor="end">5.7%</text>
      </g>
    
  <g transform="translate(426,36)" fill="#00d9ff" opacity="0.9">
    <ellipse cx="0" cy="6" rx="6" ry="5"/>
    <ellipse cx="-7" cy="-2" rx="2.4" ry="3.4"/>
    <ellipse cx="-2.6" cy="-5" rx="2.4" ry="3.6"/>
    <ellipse cx="2.6" cy="-5" rx="2.4" ry="3.6"/>
    <ellipse cx="7" cy="-2" rx="2.4" ry="3.4"/>
  </g>
  </g>
</svg>