<svg xmlns="http://www.w3.org/2000/svg" width="460" height="195" viewBox="0 0 460 195" role="img" aria-label="Top languages">
  <style>.t { font-family: 'Segoe UI', Ubuntu, sans-serif; }</style>
  <rect x="0.5" y="0.5" width="459" height="194" rx="14" fill="#0d1117" stroke="#1f2733"/>
  <rect x="0.5" y="0.5" width="459" height="4" rx="2" fill="#f5c518"/>
  <g class="t">
    <text x="30" y="42" fill="#00d9ff" font-size="19" font-weight="700">Mest brukte språk</text>
    <clipPath id="round"><rect x="30" y="70" width="400" height="12" rx="6"/></clipPath>
    <g clip-path="url(#round)"><rect x="30.00" y="70" width="215.36" height="12" fill="#3178c6"><title>TypeScript 53.8%</title></rect><rect x="245.36" y="70" width="53.32" height="12" fill="#4F5D95"><title>PHP 13.3%</title></rect><rect x="298.68" y="70" width="40.40" height="12" fill="#f7523f"><title>Blade 10.1%</title></rect><rect x="339.09" y="70" width="39.96" height="12" fill="#f1e05a"><title>JavaScript 10.0%</title></rect><rect x="379.05" y="70" width="26.68" height="12" fill="#663399"><title>CSS 6.7%</title></rect><rect x="405.73" y="70" width="12.69" height="12" fill="#e34c26"><title>HTML 3.2%</title></rect></g>
    
      <g transform="translate(30, 106)">
        <circle cx="5" cy="-4" r="5" fill="#3178c6"/>
        <text x="16" y="0" fill="#c9d1d9" font-size="12.5">TypeScript</text>
        <text x="176" y="0" fill="#8b949e" font-size="12.5" text-anchor="end">53.8%</text>
      </g>
      <g transform="translate(230, 106)">
        <circle cx="5" cy="-4" r="5" fill="#4F5D95"/>
        <text x="16" y="0" fill="#c9d1d9" font-size="12.5">PHP</text>
        <text x="176" y="0" fill="#8b949e" font-size="12.5" text-anchor="end">13.3%</text>
      </g>
      <g transform="translate(30, 130)">
        <circle cx="5" cy="-4" r="5" fill="#f7523f"/>
        <text x="16" y="0" fill="#c9d1d9" font-size="12.5">Blade</text>
        <text x="176" y="0" fill="#8b949e" font-size="12.5" text-anchor="end">10.1%</text>
      </g>
      <g transform="translate(230, 130)">
        <circle cx="5" cy="-4" r="5" fill="#f1e05a"/>
        <text x="16" y="0" fill="#c9d1d9" font-size="12.5">JavaScript</text>
        <text x="176" y="0" fill="#8b949e" font-size="12.5" text-anchor="end">10.0%</text>
      </g>
      <g transform="translate(30, 154)">
        <circle cx="5" cy="-4" r="5" fill="#663399"/>
        <text x="16" y="0" fill="#c9d1d9" font-size="12.5">CSS</text>
        <text x="176" y="0" fill="#8b949e" font-size="12.5" text-anchor="end">6.7%</text>
      </g>
      <g transform="translate(230, 154)">
        <circle cx="5" cy="-4" r="5" fill="#e34c26"/>
        <text x="16" y="0" fill="#c9d1d9" font-size="12.5">HTML</text>
        <text x="176" y="0" fill="#8b949e" font-size="12.5" text-anchor="end">3.2%</text>
      </g>
    
  <g transform="translate(426,36)" fill="#00d9ff" opacity="0.9">
    <ellipse cx="0" cy="6" rx="6" ry="5"/>
    <ellipse cx="-7" cy="-2" rx="2.4" ry="3.4"/>
    <ellipse cx="-2.6" cy="-5" rx="2.4" ry="3.6"/>
    <ellipse cx="2.6" cy="-5" rx="2.4" ry="3.6"/>
    <ellipse cx="7" cy="-2" rx="2.4" ry="3.4"/>
  </g>
  </g>
</svg>